<svg xmlns="http://www.w3.org/2000/svg">
    <symbol viewbox="0 0 101 18" id="site-name">
      <g clip-path="url(#a)" fill="#111">
        <path
          d="M1.3 16.5A6.9 6.9 0 0 1 0 12.2V5.8a7 7 0 0 1 1.2-4.3C2 .5 3.4 0 5.4 0s3.2.5 4 1.3c.9 1 1.3 2.4 1.2 3.8v1.5H6.7V4.8c0-.5 0-1-.2-1.5L6 2.8l-.6-.1c-.6 0-1 .1-1.1.5C4 3.8 4 4.3 4 5v8.3l.3 1.6c.2.4.6.5 1.2.5.5 0 .8-.1 1-.5.2-.6.2-1.1.2-1.6v-1.9h3.9v1.5c0 1.4-.3 2.8-1.2 3.9-.8 1-2.1 1.4-4 1.4-2-.1-3.3-.6-4.1-1.6ZM15.3.2h4.5L23 17.8h-3.7l-.6-3.7h-2.6l-.6 3.7h-3.7L15.3.2Zm3.2 11.6-1-6.9-.9 6.9h1.9ZM25.8 3.2h-2.6v-3h9.4v2.9h-2.7v14.7h-4V3.2ZM39.8.2h7v1.9h-4.6v5.7h3.6v1.8h-3.6v6.5h4.5v1.7h-7V.2ZM48.8.2h1.7l5.1 11.6V.2h2v17.6h-1.5L51 5.8v12h-2.1V.2ZM60 .2h7v1.9h-4.5v5.7h3.6v1.8h-3.6v6.5H67v1.7h-7V.2ZM69 .2h3.7c1.4 0 2.9.3 4 1.1 1 .7 1.3 2 1.3 3.5 0 2.3-.7 3.7-2.2 4.1l2.5 8.8H76l-2.4-8.2h-2v8.2H69V.2Zm3.5 7.6c.9 0 1.7-.2 2.3-.6.5-.4.8-1.2.8-2.4 0-.5-.1-1.1-.3-1.6a2 2 0 0 0-.9-1C74 2 73.3 2 72.7 2h-1.1v5.8h1ZM81.2 16.5A7.6 7.6 0 0 1 80 12V6.2c0-1.2 0-2.3.4-3.4a4 4 0 0 1 1.5-2c.8-.5 1.9-.7 2.9-.6 1.6 0 2.8.3 3.5 1.2a5.8 5.8 0 0 1 1.1 3.8v.6h-2.3v-.5c0-.6 0-1.3-.2-2 0-.3-.3-.7-.6-1L84.9 2c-.6 0-1.1.1-1.6.5a1.7 1.7 0 0 0-.6 1.2 14 14 0 0 0-.2 2v6.6c0 1 .1 2 .5 3 .3.5 1 .8 1.9.8a2 2 0 0 0 1.9-1c.4-1 .6-2 .5-3v-1.3H85V9.1h4.6v8.7H88l-.2-2c-.2.6-.6 1.2-1.2 1.6-.6.4-1.3.6-2 .6a4 4 0 0 1-3.4-1.5ZM94.7 11.6 90.8.3h2.4l2.7 8.5L98.6.3h2.4l-3.9 11.3v6.2h-2.3v-6.2h-.1Z" />
      </g>
      <defs>
        <clippath id="a">
          <path fill="#fff" d="M0 0h101v18H0z" />
        </clippath>
      </defs>
    </symbol>
    <symbol viewbox="0 0 27 17" id="icon--vk">
      <path
        d="M0 2.3C0 1.5.5 1 1.5 1h4c.3 0 .5.1.5.4l1.4 3.2A39.8 39.8 0 0 0 9.8 8s.2 0 .2-.2l.1-.3V3.2c0-.3 0-.5-.2-.6l-.8-.2c-.3 0-.5-.3-.5-.6v-.1C9 .6 10.1 0 11.8 0h1.5c.7 0 1.3.2 1.7.5.4.3.7.8.7 1.5v5.7l.3.1c.3 0 .5-.1.7-.4A17.7 17.7 0 0 0 20 2l.6-.7.8-.4H25.9c.4 0 .7.2.8.5l.2.3a2.4 2.4 0 0 1 0 .6v.1c0 .7-.4 1.5-.9 2.2-.5.8-1.1 1.7-2 2.6a27.6 27.6 0 0 0-1.6 2.3c0 .1 0 .3.2.5l3.9 4.6c.2.3.3.5.3.9s-.2.7-.5 1a2 2 0 0 1-1.1.3h-4.6l-.1.1c-.4 0-.8-.2-1.1-.5a241.3 241.3 0 0 1-3-3.3 38.5 38.5 0 0 0-.4 2.3l-.1.4c-.2.6-.6 1-1.1 1h-3c-1.5 0-3-.6-4.4-1.8-1.5-1.3-2.8-3-4-5A47.5 47.5 0 0 1 0 2.3ZM16 9c-.4 0-.7-.1-1-.3a.9.9 0 0 1-.5-.8V2c0-.3 0-.6-.2-.7-.2-.2-.5-.2-1-.2h-1.5c-.7 0-1.3.1-1.7.4.8.3 1.2 1 1.2 1.7v4.4c0 .4-.2.8-.6 1-.3.3-.6.5-1 .5-.6 0-1-.3-1.3-.8-1.3-2-2.4-3.8-3-5.6L5 2.1H1.2v.7l.6 1.4a33 33 0 0 0 4.8 8.6c1.8 2 3.5 3.1 5.2 3.1h2.9l.1-.4v-.3l.6-2.2.3-.6c.2-.2.5-.3.7-.3.5 0 .9.3 1.3.8l2.3 2.7c.2.2.3.3.5.3h4.4c.5 0 .8-.1.8-.4l-.1-.2-3.9-4.6c-.3-.3-.4-.7-.4-1 0-.5.1-.9.4-1.3L23 6.8l1.8-2.2c.5-.7.8-1.3 1-1.9V2.1h-4.2c-.3 0-.5.2-.6.4l-.2.5c-.4 1.1-1.6 3-3.5 5.3-.4.4-.8.6-1.3.6Z" />
    </symbol>
    <symbol viewbox="0 0 24 19" id="icon--youtube">
      <path
        d="m15.9 8.8-5.3-3.5a.7.7 0 0 0-1 .5v7a.7.7 0 0 0 1 .6L16 9.9a.7.7 0 0 0 0-1.1Zm-5 2.8V7.1l3.4 2.2-3.4 2.3ZM23.4 3a2.4 2.4 0 0 0-1.5-1.6C18.2 0 12.3 0 12 0c-.3 0-6.2 0-10 1.4A2.4 2.4 0 0 0 .7 3C.3 4.1 0 6 0 9.3s.3 5.3.6 6.3a2.4 2.4 0 0 0 1.5 1.7c3.7 1.4 9.6 1.4 9.9 1.4.8 0 6.4 0 10-1.4a2.4 2.4 0 0 0 1.4-1.7c.3-1 .6-3 .6-6.3 0-3.2-.3-5.2-.6-6.3ZM22 15.3a1 1 0 0 1-.6.7C18 17.4 12 17.4 12 17.4c0 0-6 0-9.5-1.4a1 1 0 0 1-.6-.7c-.3-1-.6-2.8-.6-6 0-3 .3-5 .6-6a1 1 0 0 1 .6-.7C6 1.3 12 1.3 12 1.3c0 0 6 0 9.5 1.3a1 1 0 0 1 .6.8c.3 1 .6 2.8.6 6 0 3-.3 4.9-.6 6Z" />
    </symbol>
    <symbol viewbox="0 0 20 18" id="icon--telegram">
      <path fill-rule="evenodd" clip-rule="evenodd"
        d="m19.5.2.2.6L17 16.5a.7.7 0 0 1-1 .5l-8-5.3a.7.7 0 0 1 0-1l2.5-3.2-4.3 2.9h-.7L.4 7.8a.7.7 0 0 1 0-1.2L18.8 0c.2 0 .5 0 .7.2ZM2.3 7.3 6 9.1l7.5-5a.7.7 0 0 1 .9 1l-4.8 6 6.4 4.2 2.3-13.6L2.3 7.3Z" />
    </symbol>
    <symbol viewbox="0 0 27 34" id="icon--HTMLAcademy">
      <path
        d="M13.6 0h-.1L0 1.4V26l13.5 8L27 26V1.4L13.6 0Zm11.6 25-11.7 7-11.7-7V15l11.7 6.8v1.3l-8-4.7v1.2l8 4.8v1.3l-8-4.8v1.2l8 4.9 8.1-4.9V17l3.6-2.1V25Zm0-11.5L22 15.3l-1.5 1-7-4.3v1.2l6 3.6-.2.1-.8.5-5-3v1.3l3.9 2.3-1 .6-3-1.7v1.2l2 1.2-2 1.1-11.6-6.8 11.6-7 11.8 6.9Zm0-1.3L13.4 5.3l-11.6 7V3l11.7-1.2L25.2 3v9.2Z" />
    </symbol>
    <symbol viewbox="0 0 20 15" id="icon--email">
      <line x1="1.65" y1="5.84766" x2="1.65" y2="13.8477" stroke-width="1.3" />
      <line x1="18.65" y1="5.84766" x2="18.65" y2="13.8477" stroke-width="1.3" />
      <line x1="1" y1="13.1977" x2="19" y2="13.1977" stroke-width="1.3" />
      <line x1="1" y1="1.19766" x2="19" y2="1.19766" stroke-width="1.3" />
      <path d="M18.35 3.02975L10 9.5242L1.65 3.02975V1.49766H4.5L10 1.49766H15H18.35V3.02975Z" stroke-width="1.3" />
    </symbol>
    <symbol viewbox="0 0 20 21" id="icon--phone">
      <g clip-path="url(#clip0_153_253)">
        <path
          d="M17.9 9.75275H9.39999V10.9569H17.9L15.8 13.0641L16.7 13.9672L19.8 10.8565C19.8974 10.7263 19.95 10.5678 19.95 10.405C19.95 10.2421 19.8974 10.0837 19.8 9.95344L16.7 6.84277L15.8 7.74587L17.9 9.75275Z" />
        <path
          d="M8.10001 19.7872V13.5659C8.08846 13.41 8.02154 13.2635 7.91142 13.153C7.80131 13.0425 7.65531 12.9754 7.50001 12.9638H3.10001C3.10516 13.2815 3.23325 13.5848 3.45718 13.8095C3.68112 14.0342 3.98336 14.1627 4.30001 14.1679H6.80001V19.1851H3.10001C2.86326 19.2 2.62591 19.1676 2.40176 19.0896C2.17762 19.0117 1.97115 18.8898 1.79436 18.7311C1.61757 18.5723 1.47399 18.3799 1.37196 18.165C1.26992 17.9501 1.21148 17.717 1.20001 17.4793V3.43111C1.19181 2.96681 1.36516 2.51774 1.68292 2.18013C2.00069 1.84252 2.43758 1.64322 2.90001 1.62492H6.80001V6.64212H4.40001C4.08336 6.64729 3.78112 6.77581 3.55718 7.00052C3.33325 7.22523 3.20516 7.52851 3.20001 7.84625H7.60001C7.75531 7.83466 7.90131 7.76751 8.01142 7.65701C8.12154 7.54651 8.18846 7.40002 8.20001 7.24418V0.922517C8.15232 0.76584 8.06117 0.626022 7.93721 0.519407C7.81325 0.412792 7.66161 0.343785 7.50001 0.320453H3.10001C2.70599 0.307054 2.31321 0.371716 1.94411 0.510744C1.57501 0.649771 1.23684 0.860436 0.948933 1.13069C0.661026 1.40095 0.42903 1.7255 0.266207 2.08579C0.103385 2.44608 0.01293 2.83504 1.46306e-05 3.23043V17.1782C-0.0289644 17.5773 0.0246504 17.978 0.157487 18.3552C0.290324 18.7324 0.499509 19.078 0.771886 19.3701C1.04426 19.6623 1.37394 19.8947 1.74019 20.0529C2.10643 20.211 2.50132 20.2913 2.90001 20.2889H7.50001C7.5735 20.304 7.64943 20.3022 7.72216 20.2839C7.7949 20.2655 7.86259 20.2309 7.92021 20.1828C7.97783 20.1346 8.02391 20.074 8.05504 20.0055C8.08616 19.9371 8.10153 19.8624 8.10001 19.7872Z" />
      </g>
      <defs>
        <clippath id="clip0_153_253">
          <rect width="20" height="20.0688" transform="translate(0 0.320435)" />
        </clippath>
      </defs>
    </symbol>
  </svg>
