<svg xmlns="http://www.w3.org/2000/svg" xmlns:xlink="http://www.w3.org/1999/xlink"><defs><clipPath id="a"><path fill="#fff" transform="translate(.619)" d="M0 0h19.148v20H0z"/></clipPath></defs><symbol id="HTMLAcademy-logo"><path d="M13.6 0h-.1L0 1.4V26l13.5 8L27 26V1.4L1.1111111111111111e+23 0Zm11.6 25-11.7 7-11.7-7V15l11.7 6.8v1.3l-8-4.7v1.2l8 4.8v1.3l-8-4.8v1.2l8 4.9 8.1-4.9V17l3.6-2.1V25Zm0-11.5L22 15.3l-1.5 1-7-4.3v1.2l6 3.6-.2.1-.8.5-5-3v1.3l3.9 2.3-1 .6-3-1.7v1.2l2 1.2-2 1.1-11.6-6.8 11.6-7 11.8 6.9Zm0-1.3L13.4 5.3l-11.6 7V3l11.7-1.2L25.2 3v9.2Z"/></symbol><symbol id="Telegram"><path fill-rule="evenodd" clip-rule="evenodd" d="m19.5.2.2.6L17 16.5a.7.7 0 0 1-1 .5l-8-5.3a.7.7 0 0 1 0-1l2.5-3.2-4.3 2.9h-.7L.4 7.8a.7.7 0 0 1 0-1.2L18.8 0c.2 0 .5 0 .7.2ZM2.3 7.3 6 9.1l7.5-5a.7.7 0 0 1 .9 1l-4.8 6 6.4 4.2 2.3-13.6-16 5.6Z"/></symbol><symbol id="Vkontakte"><path d="M0 2.3C0 1.5.5 1 1.5 1h4c.3 0 .5.1.5.4l1.4 3.2A39.8 39.8 0 0 0 9.8 8s.2 0 .2-.2l.1-.3V3.2c0-.3 0-.5-.2-.6l-.8-.2c-.3 0-.5-.3-.5-.6v-.1C9 .6 10.1 0 11.8 0h1.5c.7 0 1.3.2 1.7.5.4.3.7.8.7 1.5v5.7l.3.1c.3 0 .5-.1.7-.4A17.7 17.7 0 0 0 20 2l.6-.7.8-.4h4.5c.4 0 .7.2.8.5l.2.3a2.4 2.4 0 0 1 0 .6v.1c0 .7-.4 1.5-.9 2.2-.5.8-1.1 1.7-2 2.6a27.6 27.6 0 0 0-1.6 2.3c0 .1 0 .3.2.5l3.9 4.6c.2.3.3.5.3.9s-.2.7-.5 1a2 2 0 0 1-1.1.3h-4.6l-.1.1c-.4 0-.8-.2-1.1-.5a241.3 241.3 0 0 1-3-3.3 38.5 38.5 0 0 0-.4 2.3l-.1.4c-.2.6-.6 1-1.1 1h-3c-1.5 0-3-.6-4.4-1.8-1.5-1.3-2.8-3-4-5A47.5 47.5 0 0 1 0 2.3ZM16 9c-.4 0-.7-.1-1-.3a.9.9 0 0 1-.5-.8V2c0-.3 0-.6-.2-.7-.2-.2-.5-.2-1-.2h-1.5c-.7 0-1.3.1-1.7.4.8.3 1.2 1 1.2 1.7v4.4c0 .4-.2.8-.6 1-.3.3-.6.5-1 .5-.6 0-1-.3-1.3-.8-1.3-2-2.4-3.8-3-5.6L5 2.1H1.2v.7l.6 1.4a33 33 0 0 0 4.8 8.6c1.8 2 3.5 3.1 5.2 3.1h2.9l.1-.4v-.3l.6-2.2.3-.6c.2-.2.5-.3.7-.3.5 0 .9.3 1.3.8l2.3 2.7c.2.2.3.3.5.3h4.4c.5 0 .8-.1.8-.4l-.1-.2-3.9-4.6c-.3-.3-.4-.7-.4-1 0-.5.1-.9.4-1.3L23 6.8l1.8-2.2c.5-.7.8-1.3 1-1.9v-.6h-4.2c-.3 0-.5.2-.6.4l-.2.5c-.4 1.1-1.6 3-3.5 5.3-.4.4-.8.6-1.3.6Z"/></symbol><symbol id="Youtube"><path d="m15.9 8.8-5.3-3.5a.7.7 0 0 0-1 .5v7a.7.7 0 0 0 1 .6L16 9.9a.7.7 0 0 0 0-1.1Zm-5 2.8V7.1l3.4 2.2-3.4 2.3ZM23.4 3a2.4 2.4 0 0 0-1.5-1.6C18.2 0 12.3 0 12 0c-.3 0-6.2 0-10 1.4A2.4 2.4 0 0 0 .7 3C.3 4.1 0 6 0 9.3s.3 5.3.6 6.3a2.4 2.4 0 0 0 1.5 1.7c3.7 1.4 9.6 1.4 9.9 1.4.8 0 6.4 0 10-1.4a2.4 2.4 0 0 0 1.4-1.7c.3-1 .6-3 .6-6.3 0-3.2-.3-5.2-.6-6.3ZM22 15.3a1 1 0 0 1-.6.7C18 17.4 12 17.4 12 17.4s-6 0-9.5-1.4a1 1 0 0 1-.6-.7c-.3-1-.6-2.8-.6-6 0-3 .3-5 .6-6a1 1 0 0 1 .6-.7C6 1.3 12 1.3 12 1.3s6 0 9.5 1.3a1 1 0 0 1 .6.8c.3 1 .6 2.8.6 6 0 3-.3 4.9-.6 6Z"/></symbol><symbol id="icon_email"><path d="M1.65 5.848v8M18.65 5.848v8M1 13.198h18M1 1.198h18M18.35 3.03 10 9.524 1.65 3.03V1.498h16.7V3.03Z"/></symbol><symbol id="icon_phone"><g clip-path="url(#a)"><path d="M17.756 9.4H9.618v1.2h8.138l-2.01 2.1.861.9 2.968-3.1a.772.772 0 0 0 0-.9l-2.968-3.1-.861.9 2.01 2ZM8.374 19.4v-6.2a.663.663 0 0 0-.18-.411.611.611 0 0 0-.395-.189H3.587c.005.317.127.619.342.843.214.224.503.352.806.357H7.13v5H3.587a1.645 1.645 0 0 1-.669-.095 1.7 1.7 0 0 1-.581-.357 1.785 1.785 0 0 1-.405-.565 1.854 1.854 0 0 1-.164-.683v-14c-.008-.463.158-.91.462-1.247A1.664 1.664 0 0 1 3.395 1.3H7.13v5H4.831a1.144 1.144 0 0 0-.807.357 1.247 1.247 0 0 0-.342.843h4.213a.611.611 0 0 0 .394-.189.663.663 0 0 0 .18-.411V.6a.864.864 0 0 0-.251-.402A.808.808 0 0 0 7.799 0H3.587A2.762 2.762 0 0 0 2.48.19a2.856 2.856 0 0 0-.953.617 3 3 0 0 0-.653.952A3.111 3.111 0 0 0 .619 2.9v13.9c-.028.398.023.797.15 1.173.128.376.328.72.589 1.011.26.292.576.523.927.68.35.158.728.238 1.11.236H7.8a.46.46 0 0 0 .402-.106.497.497 0 0 0 .173-.394Z"/></g></symbol></svg>